<svg xmlns="http://www.w3.org/2000/svg" viewBox="0 0 200 200" width="200" height="200">
  <defs>
    <linearGradient id="qadev-gradient" x1="0%" y1="0%" x2="100%" y2="100%">
      <stop offset="0%" style="stop-color:#13C2C2;stop-opacity:1" />
      <stop offset="100%" style="stop-color:#1890ff;stop-opacity:1" />
    </linearGradient>
  </defs>
  
  <!-- 背景圆形 -->
  <circle cx="100" cy="100" r="90" fill="url(#qadev-gradient)" />
  
  <!-- Q 字母主体 -->
  <path d="M 100 30 Q 60 30 40 60 Q 20 90 40 120 Q 60 150 100 150 Q 140 150 160 120 Q 180 90 160 60 Q 140 30 100 30 Z" 
        fill="white" 
        stroke="white" 
        stroke-width="2"/>
  
  <!-- Q 字母内部 -->
  <path d="M 100 50 Q 70 50 55 70 Q 40 90 55 110 Q 70 130 100 130 Q 130 130 145 110 Q 160 90 145 70 Q 130 50 100 50 Z" 
        fill="url(#qadev-gradient)"/>
  
  <!-- Q 字母尾部 -->
  <path d="M 145 110 L 170 140 L 160 150 L 135 120 Z" 
        fill="white" 
        stroke="white" 
        stroke-width="2"/>
  
  <!-- 检查标记 -->
  <path d="M 80 100 L 95 115 L 130 80" 
        fill="none" 
        stroke="white" 
        stroke-width="8" 
        stroke-linecap="round" 
        stroke-linejoin="round"/>
</svg>
